# xmcd
#
# Track frame offsets: 
#        150
#        12407
#        22466
#        36828
#        47006
#        59543
#        71260
#        88177
#        97933
#        107438
#        117094
#        125893
#        135231
#        151699
#        162192
#        174306
#        184480
#        194840
#        204535
#        213957
#
# Disc length: 3032 seconds
#
# Revision: 1
# Processed by: cddbd v1.5.2PL0 Copyright (c) Steve Scherf et al.
# Submitted via: ExactAudioCopy v0.95b4
#
DISCID=1a0bd614
DTITLE=Various Artist - 200 Country Classics  -  CD 1
DYEAR=2008
DGENRE=Country
TTITLE0=Johnny Cash - I Walk The Line
TTITLE1=Jim Reeves - He'll Have To Go
TTITLE2=Glen Campbell - Rhinestone Cowboy
TTITLE3=Dolly Parton - Release Me
TTITLE4=Hank Williams - Honky Tonkin'
TTITLE5=Barbara Fairchild - You Can't Put The City In A Country Girl
TTITLE6=Connie Francis - Love Is Strange
TTITLE7=Buck Owens - I've Got a Tiger By The Tail
TTITLE8=Gene Autry - Tears On My Pillow
TTITLE9=Hank Locklin - Happy Journey
TTITLE10=Lynn Anderson - Ride, Ride, Ride
TTITLE11=Sandy  Posey - Born A Woman
TTITLE12=Ferlin Husky - Giddyup Go
TTITLE13=Barbara Mandrell - The Wayward Wind
TTITLE14=Alabama - Loving You Is Killing Me
TTITLE15=Don Williams - Take My Hand For A While
TTITLE16=George Hamilton - Abilene
TTITLE17=Johnny Cash - Rock Island Line
TTITLE18=Merle Haggard - The Legend Of Bonny And Clyde
TTITLE19=Johnny Paycheck - She's Mine
EXTD=YEAR: 2008
EXTT0=
EXTT1=
EXTT2=
EXTT3=
EXTT4=
EXTT5=
EXTT6=
EXTT7=
EXTT8=
EXTT9=
EXTT10=
EXTT11=
EXTT12=
EXTT13=
EXTT14=
EXTT15=
EXTT16=
EXTT17=
EXTT18=
EXTT19=
PLAYORDER=
